<?xml version="1.0" encoding="UTF-8"?>
<svg xmlns="http://www.w3.org/2000/svg" xmlns:xlink="http://www.w3.org/1999/xlink" width="px" height="48px" viewBox="0 0 48 48" version="1.1">
<g id="surface1">
<path style=" stroke:none;fill-rule:nonzero;fill:rgb(0%,0%,0%);fill-opacity:1;" d="M 24 4 C 35.027344 4 44 12.972656 44 24 C 44 35.027344 35.027344 44 24 44 C 12.972656 44 4 35.027344 4 24 C 4 12.972656 12.972656 4 24 4 Z M 24 0 C 10.746094 0 0 10.746094 0 24 C 0 37.253906 10.746094 48 24 48 C 37.253906 48 48 37.253906 48 24 C 48 10.746094 37.253906 0 24 0 Z M 20 16 C 20 17.113281 19.105469 18.015625 18 18.015625 C 16.894531 18.015625 16 17.117188 16 16 C 16 14.886719 16.894531 13.984375 18 13.984375 C 19.105469 13.984375 20 14.886719 20 16 Z M 20 20 L 16 20 L 16 32 L 20 32 Z M 26 20 L 22 20 L 22 32 L 26 32 L 26 26.277344 C 26 22.835938 30.003906 22.515625 30.003906 26.277344 L 30.003906 32 L 34 32 L 34 25.28125 C 34 18.714844 27.742188 18.953125 26 22.1875 Z M 26 20 "/>
</g>
</svg>
