<?xml version="1.0" encoding="UTF-8"?>
<svg xmlns="http://www.w3.org/2000/svg" xmlns:xlink="http://www.w3.org/1999/xlink" width="px" height="48px" viewBox="0 0 48 48" version="1.1">
<g id="surface1">
<path style=" stroke:none;fill-rule:nonzero;fill:rgb(0%,0%,0%);fill-opacity:1;" d="M 24 4 C 35.027344 4 44 12.972656 44 24 C 44 35.027344 35.027344 44 24 44 C 12.972656 44 4 35.027344 4 24 C 4 12.972656 12.972656 4 24 4 Z M 24 0 C 10.746094 0 0 10.746094 0 24 C 0 37.253906 10.746094 48 24 48 C 37.253906 48 48 37.253906 48 24 C 48 10.746094 37.253906 0 24 0 Z M 24 12 C 17.375 12 12 17.371094 12 24 C 12 29.300781 15.4375 33.800781 20.207031 35.386719 C 20.808594 35.496094 21 35.125 21 34.808594 L 21 32.574219 C 17.660156 33.300781 16.964844 31.160156 16.964844 31.160156 C 16.421875 29.773438 15.632812 29.402344 15.632812 29.402344 C 14.546875 28.65625 15.714844 28.675781 15.714844 28.675781 C 16.921875 28.757812 17.554688 29.910156 17.554688 29.910156 C 18.625 31.746094 20.363281 31.214844 21.046875 30.910156 C 21.15625 30.132812 21.464844 29.605469 21.808594 29.304688 C 19.144531 29.003906 16.34375 27.972656 16.34375 23.375 C 16.34375 22.066406 16.8125 20.996094 17.578125 20.15625 C 17.457031 19.851562 17.042969 18.628906 17.695312 16.976562 C 17.695312 16.976562 18.703125 16.652344 20.996094 18.207031 C 21.953125 17.941406 22.980469 17.808594 24 17.800781 C 25.019531 17.804688 26.046875 17.941406 27.007812 18.207031 C 29.296875 16.652344 30.300781 16.976562 30.300781 16.976562 C 30.957031 18.628906 30.542969 19.851562 30.421875 20.152344 C 31.191406 20.992188 31.65625 22.0625 31.65625 23.371094 C 31.65625 27.980469 28.847656 28.996094 26.175781 29.292969 C 26.609375 29.664062 27 30.394531 27 31.515625 L 27 34.804688 C 27 35.125 27.191406 35.5 27.800781 35.382812 C 32.566406 33.796875 36 29.300781 36 24 C 36 17.371094 30.625 12 24 12 Z M 24 12 "/>
</g>
</svg>
